# xmcd CD database file
#
# Track frame offsets:
#	150
#	26894
#	56525
#	71932
#	95551
#	123147
#	142950
#	168116
#
# Disc length: 2565 seconds
#
# Revision: 0
# Processed by: cddbd v1.5.2PL0 Copyright (c) Steve Scherf et al.
# Submitted via: CDex 1.70beta2
#
DISCID=6b0a0308
DTITLE=La Nueva Generacion Esanola - Night Time Cafe' No.6 -OLE! SPANISH JAZZ
DYEAR=2003
DGENRE=Jazz
TTITLE0=Cancion De Saludo
TTITLE1=Jadia Pero Contenta
TTITLE2=Mano A Mano 1
TTITLE3=Manolo
TTITLE4=Echate A Mi Vera
TTITLE5=Nostalgias
TTITLE6=Mano A Mano 2
TTITLE7=Spanish Generation
EXTD=YEAR: 2003
EXTT0=
EXTT1=
EXTT2=
EXTT3=
EXTT4=
EXTT5=
EXTT6=
EXTT7=
PLAYORDER=
